<svg width="80" height="80" viewBox="0 0 80 80" fill="none" xmlns="http://www.w3.org/2000/svg">
<rect width="80" height="80" rx="40" fill="#EDF2FF"/>
<path d="M40 10.75C34.2149 10.75 28.5597 12.4655 23.7496 15.6795C18.9394 18.8935 15.1904 23.4618 12.9765 28.8065C10.7627 34.1512 10.1834 40.0324 11.312 45.7064C12.4407 51.3803 15.2265 56.5922 19.3171 60.6829C23.4078 64.7736 28.6197 67.5593 34.2936 68.688C39.9676 69.8166 45.8488 69.2373 51.1935 67.0235C56.5382 64.8096 61.1065 61.0606 64.3205 56.2504C67.5345 51.4403 69.25 45.7851 69.25 40C69.2418 32.2449 66.1575 24.8098 60.6738 19.3262C55.1902 13.8425 47.7551 10.7582 40 10.75ZM52.8419 34.8419L37.0919 50.5919C36.8829 50.8011 36.6348 50.967 36.3616 51.0803C36.0885 51.1935 35.7957 51.2518 35.5 51.2518C35.2043 51.2518 34.9115 51.1935 34.6384 51.0803C34.3653 50.967 34.1171 50.8011 33.9081 50.5919L27.1581 43.8419C26.7359 43.4197 26.4988 42.8471 26.4988 42.25C26.4988 41.6529 26.7359 41.0803 27.1581 40.6581C27.5803 40.2359 28.1529 39.9987 28.75 39.9987C29.3471 39.9987 29.9197 40.2359 30.3419 40.6581L35.5 45.8191L49.6581 31.6581C49.8672 31.4491 50.1154 31.2833 50.3885 31.1701C50.6616 31.057 50.9544 30.9987 51.25 30.9987C51.5457 30.9987 51.8384 31.057 52.1115 31.1701C52.3847 31.2833 52.6328 31.4491 52.8419 31.6581C53.0509 31.8672 53.2168 32.1153 53.3299 32.3885C53.443 32.6616 53.5013 32.9544 53.5013 33.25C53.5013 33.5456 53.443 33.8384 53.3299 34.1115C53.2168 34.3847 53.0509 34.6328 52.8419 34.8419Z" fill="#2F0FD1"/>
</svg>
